<mxfile host="app.diagrams.net" agent="Mozilla/5.0 (Windows NT 10.0; Win64; x64) AppleWebKit/537.36 (KHTML, like Gecko) Chrome/131.0.0.0 Safari/537.36" version="26.0.4">
  <diagram name="Seite-1" id="doIcr9dZKpBIJAQc-s5b">
    <mxGraphModel dx="989" dy="532" grid="1" gridSize="10" guides="1" tooltips="1" connect="1" arrows="1" fold="1" page="1" pageScale="1" pageWidth="1654" pageHeight="1169" math="0" shadow="0">
      <root>
        <mxCell id="0" />
        <mxCell id="1" parent="0" />
        <mxCell id="RFZZks00Yh5t1Ho3ZFFj-1" value="Sequenz" style="rounded=0;whiteSpace=wrap;html=1;fillColor=#FFE599;strokeColor=#d6b656;fontSize=14;" parent="1" vertex="1">
          <mxGeometry x="301.25" y="80" width="240" height="40" as="geometry" />
        </mxCell>
        <mxCell id="RFZZks00Yh5t1Ho3ZFFj-2" value="" style="rounded=0;whiteSpace=wrap;html=1;fillColor=#fff2cc;strokeColor=#d6b656;" parent="1" vertex="1">
          <mxGeometry x="301.25" y="120" width="240" height="230" as="geometry" />
        </mxCell>
        <mxCell id="RFZZks00Yh5t1Ho3ZFFj-3" value="Steuerungsmethoden / Eigenschaften" style="text;html=1;align=left;verticalAlign=middle;whiteSpace=wrap;rounded=0;fontStyle=4" parent="1" vertex="1">
          <mxGeometry x="311.25" y="120" width="220" height="30" as="geometry" />
        </mxCell>
        <mxCell id="RFZZks00Yh5t1Ho3ZFFj-4" value="" style="rounded=0;whiteSpace=wrap;html=1;fillColor=none;strokeColor=none;" parent="1" vertex="1">
          <mxGeometry x="311.25" y="150" width="220" height="20" as="geometry" />
        </mxCell>
        <mxCell id="RFZZks00Yh5t1Ho3ZFFj-5" value="" style="rounded=0;whiteSpace=wrap;html=1;fillColor=none;strokeColor=none;" parent="1" vertex="1">
          <mxGeometry x="311.25" y="170" width="220" height="20" as="geometry" />
        </mxCell>
        <mxCell id="RFZZks00Yh5t1Ho3ZFFj-6" value="" style="rounded=0;whiteSpace=wrap;html=1;fillColor=none;strokeColor=none;" parent="1" vertex="1">
          <mxGeometry x="311.25" y="190" width="220" height="20" as="geometry" />
        </mxCell>
        <mxCell id="RFZZks00Yh5t1Ho3ZFFj-7" value="" style="rounded=0;whiteSpace=wrap;html=1;fillColor=none;strokeColor=none;" parent="1" vertex="1">
          <mxGeometry x="311.25" y="210" width="220" height="20" as="geometry" />
        </mxCell>
        <mxCell id="RFZZks00Yh5t1Ho3ZFFj-8" value="" style="rounded=0;whiteSpace=wrap;html=1;fillColor=none;strokeColor=none;" parent="1" vertex="1">
          <mxGeometry x="311.25" y="230" width="220" height="20" as="geometry" />
        </mxCell>
        <mxCell id="RFZZks00Yh5t1Ho3ZFFj-9" value="Betriebsvariablen" style="text;html=1;align=left;verticalAlign=middle;whiteSpace=wrap;rounded=0;fontStyle=4" parent="1" vertex="1">
          <mxGeometry x="311.25" y="265" width="120" height="30" as="geometry" />
        </mxCell>
        <mxCell id="RFZZks00Yh5t1Ho3ZFFj-10" value="" style="rounded=0;whiteSpace=wrap;html=1;fillColor=none;strokeColor=none;" parent="1" vertex="1">
          <mxGeometry x="311.25" y="295" width="220" height="20" as="geometry" />
        </mxCell>
        <mxCell id="RFZZks00Yh5t1Ho3ZFFj-11" value="" style="endArrow=none;html=1;rounded=0;strokeWidth=2;" parent="1" source="RFZZks00Yh5t1Ho3ZFFj-10" edge="1">
          <mxGeometry width="50" height="50" relative="1" as="geometry">
            <mxPoint x="351.25" y="365" as="sourcePoint" />
            <mxPoint x="291.25" y="305" as="targetPoint" />
          </mxGeometry>
        </mxCell>
        <mxCell id="RFZZks00Yh5t1Ho3ZFFj-12" value="iSysCommand &lt;i&gt;(FÃ¼r Resett)&lt;/i&gt;" style="text;html=1;align=left;verticalAlign=middle;whiteSpace=wrap;rounded=0;fontStyle=0;fontSize=10;" parent="1" vertex="1">
          <mxGeometry x="315.25" y="300" width="204.75" height="10" as="geometry" />
        </mxCell>
        <mxCell id="RFZZks00Yh5t1Ho3ZFFj-21" style="edgeStyle=orthogonalEdgeStyle;rounded=0;orthogonalLoop=1;jettySize=auto;html=1;endArrow=none;endFill=0;strokeWidth=2;" parent="1" source="RFZZks00Yh5t1Ho3ZFFj-22" edge="1">
          <mxGeometry relative="1" as="geometry">
            <mxPoint x="551.25" y="247.5" as="targetPoint" />
          </mxGeometry>
        </mxCell>
        <mxCell id="RFZZks00Yh5t1Ho3ZFFj-22" value="&lt;font style=&quot;font-size: 10px;&quot;&gt;P_State (GET)&lt;/font&gt;" style="rounded=0;whiteSpace=wrap;html=1;fillColor=#FFE599;strokeColor=#d6b656;fontSize=14;" parent="1" vertex="1">
          <mxGeometry x="315.25" y="235" width="220" height="25" as="geometry" />
        </mxCell>
        <mxCell id="RFZZks00Yh5t1Ho3ZFFj-23" value="" style="endArrow=none;html=1;rounded=0;fillColor=#fff2cc;strokeColor=#d6b656;entryX=1;entryY=0.464;entryDx=0;entryDy=0;entryPerimeter=0;exitX=0;exitY=0.466;exitDx=0;exitDy=0;exitPerimeter=0;strokeWidth=1;dashed=1;" parent="1" edge="1">
          <mxGeometry width="50" height="50" relative="1" as="geometry">
            <mxPoint x="301.25" y="265.28999999999996" as="sourcePoint" />
            <mxPoint x="541.25" y="264.71000000000004" as="targetPoint" />
          </mxGeometry>
        </mxCell>
        <mxCell id="RFZZks00Yh5t1Ho3ZFFj-25" value="Arbeitsplan&amp;nbsp;" style="rounded=0;whiteSpace=wrap;html=1;rotation=-90;fillColor=#fff2cc;strokeColor=#d6b656;" parent="1" vertex="1">
          <mxGeometry x="161.25" y="150" width="110" height="30" as="geometry" />
        </mxCell>
        <mxCell id="RFZZks00Yh5t1Ho3ZFFj-27" value="Arbeitsplan" style="rounded=0;whiteSpace=wrap;html=1;rotation=-90;fillColor=#fff2cc;strokeColor=#d6b656;" parent="1" vertex="1">
          <mxGeometry x="570.25" y="232.5" width="110" height="30" as="geometry" />
        </mxCell>
        <mxCell id="RFZZks00Yh5t1Ho3ZFFj-29" value="Systemparameter" style="rounded=0;whiteSpace=wrap;html=1;rotation=-90;fillColor=#f5f5f5;fontColor=#333333;strokeColor=#666666;" parent="1" vertex="1">
          <mxGeometry x="162.5" y="270" width="107.5" height="30" as="geometry" />
        </mxCell>
        <mxCell id="RFZZks00Yh5t1Ho3ZFFj-33" value="" style="endArrow=none;html=1;rounded=0;" parent="1" edge="1">
          <mxGeometry width="50" height="50" relative="1" as="geometry">
            <mxPoint x="241.25" y="304.91999999999996" as="sourcePoint" />
            <mxPoint x="281.25" y="305" as="targetPoint" />
          </mxGeometry>
        </mxCell>
        <mxCell id="RFZZks00Yh5t1Ho3ZFFj-36" value="" style="endArrow=none;html=1;rounded=0;" parent="1" edge="1">
          <mxGeometry width="50" height="50" relative="1" as="geometry">
            <mxPoint x="241.25" y="305" as="sourcePoint" />
            <mxPoint x="241" y="280" as="targetPoint" />
          </mxGeometry>
        </mxCell>
        <mxCell id="RFZZks00Yh5t1Ho3ZFFj-37" value="" style="endArrow=none;html=1;rounded=0;" parent="1" edge="1">
          <mxGeometry width="50" height="50" relative="1" as="geometry">
            <mxPoint x="241.25" y="279.89" as="sourcePoint" />
            <mxPoint x="231.25" y="279.89" as="targetPoint" />
          </mxGeometry>
        </mxCell>
        <mxCell id="RFZZks00Yh5t1Ho3ZFFj-40" value="" style="endArrow=none;html=1;rounded=0;fillColor=#dae8fc;strokeColor=#000000;" parent="1" edge="1">
          <mxGeometry width="50" height="50" relative="1" as="geometry">
            <mxPoint x="260.25" y="329.8" as="sourcePoint" />
            <mxPoint x="280.25" y="329.9400000000001" as="targetPoint" />
          </mxGeometry>
        </mxCell>
        <mxCell id="RFZZks00Yh5t1Ho3ZFFj-42" value="" style="endArrow=none;html=1;rounded=0;fillColor=#dae8fc;strokeColor=#000000;" parent="1" edge="1">
          <mxGeometry width="50" height="50" relative="1" as="geometry">
            <mxPoint x="261.25" y="310" as="sourcePoint" />
            <mxPoint x="261" y="330" as="targetPoint" />
          </mxGeometry>
        </mxCell>
        <mxCell id="RFZZks00Yh5t1Ho3ZFFj-43" value="" style="endArrow=none;html=1;rounded=0;fillColor=#dae8fc;strokeColor=#000000;" parent="1" edge="1">
          <mxGeometry width="50" height="50" relative="1" as="geometry">
            <mxPoint x="261.25" y="200" as="sourcePoint" />
            <mxPoint x="261.25" y="300" as="targetPoint" />
          </mxGeometry>
        </mxCell>
        <mxCell id="RFZZks00Yh5t1Ho3ZFFj-44" value="" style="endArrow=none;html=1;rounded=0;fillColor=#dae8fc;strokeColor=#000000;" parent="1" edge="1">
          <mxGeometry width="50" height="50" relative="1" as="geometry">
            <mxPoint x="261.25" y="199.92000000000002" as="sourcePoint" />
            <mxPoint x="231.25" y="199.84000000000003" as="targetPoint" />
          </mxGeometry>
        </mxCell>
        <mxCell id="RFZZks00Yh5t1Ho3ZFFj-46" value="2" style="ellipse;whiteSpace=wrap;html=1;aspect=fixed;fontSize=6;fillColor=#f5f5f5;fontColor=#333333;strokeColor=#666666;" parent="1" vertex="1">
          <mxGeometry x="286.25" y="290" width="10" height="10" as="geometry" />
        </mxCell>
        <mxCell id="RFZZks00Yh5t1Ho3ZFFj-49" value="1" style="ellipse;whiteSpace=wrap;html=1;aspect=fixed;fontSize=6;fillColor=#f5f5f5;fontColor=#333333;strokeColor=#666666;" parent="1" vertex="1">
          <mxGeometry x="286.25" y="143" width="10" height="10" as="geometry" />
        </mxCell>
        <mxCell id="RFZZks00Yh5t1Ho3ZFFj-51" style="edgeStyle=orthogonalEdgeStyle;rounded=0;orthogonalLoop=1;jettySize=auto;html=1;endArrow=none;endFill=0;strokeWidth=2;" parent="1" source="RFZZks00Yh5t1Ho3ZFFj-52" edge="1">
          <mxGeometry relative="1" as="geometry">
            <mxPoint x="291.25" y="157.5" as="targetPoint" />
          </mxGeometry>
        </mxCell>
        <mxCell id="RFZZks00Yh5t1Ho3ZFFj-52" value="&lt;font style=&quot;font-size: 10px;&quot;&gt;M_Start&lt;/font&gt;" style="rounded=0;whiteSpace=wrap;html=1;fillColor=#FFE599;strokeColor=#d6b656;fontSize=14;" parent="1" vertex="1">
          <mxGeometry x="315.25" y="145" width="220" height="25" as="geometry" />
        </mxCell>
        <mxCell id="RFZZks00Yh5t1Ho3ZFFj-54" value="&lt;font style=&quot;font-size: 10px;&quot;&gt;M_Stop (intern)&lt;/font&gt;" style="rounded=0;whiteSpace=wrap;html=1;fillColor=#FFE599;strokeColor=#d6b656;fontSize=14;" parent="1" vertex="1">
          <mxGeometry x="315.25" y="175" width="220" height="25" as="geometry" />
        </mxCell>
        <mxCell id="RFZZks00Yh5t1Ho3ZFFj-55" style="edgeStyle=orthogonalEdgeStyle;rounded=0;orthogonalLoop=1;jettySize=auto;html=1;endArrow=none;endFill=0;strokeWidth=2;" parent="1" source="RFZZks00Yh5t1Ho3ZFFj-56" edge="1">
          <mxGeometry relative="1" as="geometry">
            <mxPoint x="291.25" y="217.5" as="targetPoint" />
          </mxGeometry>
        </mxCell>
        <mxCell id="RFZZks00Yh5t1Ho3ZFFj-56" value="&lt;font style=&quot;font-size: 10px;&quot;&gt;M_Reset&lt;/font&gt;" style="rounded=0;whiteSpace=wrap;html=1;fillColor=#FFE599;strokeColor=#d6b656;fontSize=14;" parent="1" vertex="1">
          <mxGeometry x="315.25" y="205" width="220" height="25" as="geometry" />
        </mxCell>
        <mxCell id="RFZZks00Yh5t1Ho3ZFFj-63" value="1" style="ellipse;whiteSpace=wrap;html=1;aspect=fixed;fontSize=6;fillColor=#f5f5f5;fontColor=#333333;strokeColor=#666666;" parent="1" vertex="1">
          <mxGeometry x="286.25" y="203" width="10" height="10" as="geometry" />
        </mxCell>
        <mxCell id="RFZZks00Yh5t1Ho3ZFFj-65" value="" style="endArrow=none;html=1;rounded=0;fillColor=#dae8fc;strokeColor=#6c8ebf;" parent="1" edge="1">
          <mxGeometry width="50" height="50" relative="1" as="geometry">
            <mxPoint x="281.25" y="158" as="sourcePoint" />
            <mxPoint x="231.25" y="158" as="targetPoint" />
          </mxGeometry>
        </mxCell>
        <mxCell id="RFZZks00Yh5t1Ho3ZFFj-66" value="" style="endArrow=none;html=1;rounded=0;fillColor=#dae8fc;strokeColor=#6c8ebf;" parent="1" edge="1">
          <mxGeometry width="50" height="50" relative="1" as="geometry">
            <mxPoint x="281.25" y="218" as="sourcePoint" />
            <mxPoint x="271.25" y="218" as="targetPoint" />
          </mxGeometry>
        </mxCell>
        <mxCell id="RFZZks00Yh5t1Ho3ZFFj-67" value="" style="endArrow=none;html=1;rounded=0;fillColor=#dae8fc;strokeColor=#6c8ebf;" parent="1" edge="1">
          <mxGeometry width="50" height="50" relative="1" as="geometry">
            <mxPoint x="271.25" y="218" as="sourcePoint" />
            <mxPoint x="271.25" y="180" as="targetPoint" />
          </mxGeometry>
        </mxCell>
        <mxCell id="RFZZks00Yh5t1Ho3ZFFj-83" value="" style="endArrow=none;html=1;rounded=0;fillColor=#dae8fc;strokeColor=#6c8ebf;" parent="1" edge="1">
          <mxGeometry width="50" height="50" relative="1" as="geometry">
            <mxPoint x="560" y="248" as="sourcePoint" />
            <mxPoint x="610" y="248" as="targetPoint" />
          </mxGeometry>
        </mxCell>
        <mxCell id="RFZZks00Yh5t1Ho3ZFFj-87" value="1" style="ellipse;whiteSpace=wrap;html=1;aspect=fixed;fontSize=6;fillColor=#f5f5f5;fontColor=#333333;strokeColor=#666666;" parent="1" vertex="1">
          <mxGeometry x="550.25" y="230" width="10" height="10" as="geometry" />
        </mxCell>
        <mxCell id="RFZZks00Yh5t1Ho3ZFFj-90" value="" style="endArrow=none;html=1;rounded=0;fillColor=#dae8fc;strokeColor=#6c8ebf;" parent="1" edge="1">
          <mxGeometry width="50" height="50" relative="1" as="geometry">
            <mxPoint x="271.25" y="180" as="sourcePoint" />
            <mxPoint x="231.25" y="180" as="targetPoint" />
          </mxGeometry>
        </mxCell>
        <mxCell id="RFZZks00Yh5t1Ho3ZFFj-91" value="" style="rounded=0;whiteSpace=wrap;html=1;fillColor=#fff2cc;strokeColor=#d6b656;" parent="1" vertex="1">
          <mxGeometry x="301.25" y="390" width="240" height="90" as="geometry" />
        </mxCell>
        <mxCell id="RFZZks00Yh5t1Ho3ZFFj-94" style="edgeStyle=orthogonalEdgeStyle;rounded=0;orthogonalLoop=1;jettySize=auto;html=1;entryX=0;entryY=0.5;entryDx=0;entryDy=0;endSize=4;" parent="1" source="RFZZks00Yh5t1Ho3ZFFj-92" target="RFZZks00Yh5t1Ho3ZFFj-93" edge="1">
          <mxGeometry relative="1" as="geometry" />
        </mxCell>
        <mxCell id="RFZZks00Yh5t1Ho3ZFFj-92" value="&lt;font&gt;BEREIT&lt;/font&gt;" style="rounded=0;whiteSpace=wrap;html=1;fillColor=#FFE599;strokeColor=#d6b656;fontSize=10;" parent="1" vertex="1">
          <mxGeometry x="311.25" y="420" width="78.75" height="20" as="geometry" />
        </mxCell>
        <mxCell id="RFZZks00Yh5t1Ho3ZFFj-97" style="edgeStyle=orthogonalEdgeStyle;rounded=0;orthogonalLoop=1;jettySize=auto;html=1;entryX=0.5;entryY=1;entryDx=0;entryDy=0;" parent="1" source="RFZZks00Yh5t1Ho3ZFFj-93" target="RFZZks00Yh5t1Ho3ZFFj-92" edge="1">
          <mxGeometry relative="1" as="geometry">
            <Array as="points">
              <mxPoint x="479" y="470" />
              <mxPoint x="351" y="470" />
            </Array>
          </mxGeometry>
        </mxCell>
        <mxCell id="RFZZks00Yh5t1Ho3ZFFj-93" value="&lt;font&gt;LAUFEND&lt;/font&gt;" style="rounded=0;whiteSpace=wrap;html=1;fillColor=#FFE599;strokeColor=#d6b656;fontSize=10;" parent="1" vertex="1">
          <mxGeometry x="440" y="420" width="78.75" height="20" as="geometry" />
        </mxCell>
        <mxCell id="RFZZks00Yh5t1Ho3ZFFj-95" value="" style="ellipse;html=1;shape=startState;fillColor=#000000;strokeColor=#ff0000;container=0;" parent="1" vertex="1">
          <mxGeometry x="311.25" y="395" width="20" height="20" as="geometry" />
        </mxCell>
        <mxCell id="RFZZks00Yh5t1Ho3ZFFj-96" value="" style="edgeStyle=orthogonalEdgeStyle;html=1;verticalAlign=bottom;endArrow=classic;endSize=4;strokeColor=#ff0000;rounded=0;endFill=1;entryX=0.5;entryY=0;entryDx=0;entryDy=0;exitX=1;exitY=0.5;exitDx=0;exitDy=0;" parent="1" source="RFZZks00Yh5t1Ho3ZFFj-95" target="RFZZks00Yh5t1Ho3ZFFj-92" edge="1">
          <mxGeometry relative="1" as="geometry">
            <mxPoint x="310.73" y="460" as="targetPoint" />
            <Array as="points">
              <mxPoint x="351" y="405" />
            </Array>
          </mxGeometry>
        </mxCell>
        <mxCell id="RFZZks00Yh5t1Ho3ZFFj-98" value="&lt;span style=&quot;font-size: 8px;&quot;&gt;&lt;i&gt;Beendet OR Resetten&lt;/i&gt;&lt;/span&gt;" style="text;whiteSpace=wrap;html=1;spacing=0;" parent="1" vertex="1">
          <mxGeometry x="377.63" y="450" width="80" height="20" as="geometry" />
        </mxCell>
        <mxCell id="RFZZks00Yh5t1Ho3ZFFj-99" value="&lt;span style=&quot;font-size: 8px;&quot;&gt;&lt;i&gt;Start&lt;/i&gt;&lt;/span&gt;" style="text;whiteSpace=wrap;html=1;spacing=0;" parent="1" vertex="1">
          <mxGeometry x="405.25" y="411" width="30" height="20" as="geometry" />
        </mxCell>
        <mxCell id="Z1JDiCrz_LONugxSbOh4-1" value="" style="rounded=0;whiteSpace=wrap;html=1;fillColor=none;strokeColor=none;" parent="1" vertex="1">
          <mxGeometry x="311.25" y="320" width="220" height="20" as="geometry" />
        </mxCell>
        <mxCell id="Z1JDiCrz_LONugxSbOh4-2" value="" style="endArrow=none;html=1;rounded=0;strokeWidth=2;" parent="1" source="Z1JDiCrz_LONugxSbOh4-1" edge="1">
          <mxGeometry width="50" height="50" relative="1" as="geometry">
            <mxPoint x="351.25" y="390" as="sourcePoint" />
            <mxPoint x="291.25" y="330" as="targetPoint" />
          </mxGeometry>
        </mxCell>
        <mxCell id="Z1JDiCrz_LONugxSbOh4-3" value="Prozessparameter&amp;nbsp;" style="text;html=1;align=left;verticalAlign=middle;whiteSpace=wrap;rounded=0;fontStyle=0;fontSize=10;" parent="1" vertex="1">
          <mxGeometry x="315.25" y="325" width="76" height="10" as="geometry" />
        </mxCell>
        <mxCell id="Z1JDiCrz_LONugxSbOh4-4" value="1" style="ellipse;whiteSpace=wrap;html=1;aspect=fixed;fontSize=6;fillColor=#f5f5f5;fontColor=#333333;strokeColor=#666666;" parent="1" vertex="1">
          <mxGeometry x="286.25" y="315" width="10" height="10" as="geometry" />
        </mxCell>
        <mxCell id="RFZZks00Yh5t1Ho3ZFFj-77" value="2: Koordinationsschnittstelle" style="text;html=1;align=left;verticalAlign=middle;whiteSpace=wrap;rounded=0;fontSize=8;fontStyle=2" parent="1" vertex="1">
          <mxGeometry x="301.25" y="370" width="140" height="10" as="geometry" />
        </mxCell>
        <mxCell id="RFZZks00Yh5t1Ho3ZFFj-79" value="1: Interne Schnittstelle von Prozessmodell" style="text;html=1;align=left;verticalAlign=middle;whiteSpace=wrap;rounded=0;fontSize=8;fontStyle=2" parent="1" vertex="1">
          <mxGeometry x="301.25" y="350" width="210" height="20" as="geometry" />
        </mxCell>
      </root>
    </mxGraphModel>
  </diagram>
</mxfile>
